<?xml version="1.0" encoding="UTF-8" standalone="no" ?>
<!DOCTYPE svg PUBLIC "-//W3C//DTD SVG 1.1//EN" "http://www.w3.org/Graphics/SVG/1.1/DTD/svg11.dtd">
<svg xmlns="http://www.w3.org/2000/svg" xmlns:xlink="http://www.w3.org/1999/xlink" version="1.1" width="500" height="108" viewBox="0 0 500 108" xml:space="preserve">
<desc>Created with Fabric.js 3.6.6</desc>
<defs>
</defs>
<g transform="matrix(1.14 0 0 1.14 250.45 44.64)"  >
<path style="stroke: rgb(0,0,0); stroke-width: 0.94; stroke-dasharray: none; stroke-linecap: round; stroke-dashoffset: 0; stroke-linejoin: miter; stroke-miterlimit: 4; fill: rgb(0,0,0); fill-rule: evenodd; opacity: 1;"  transform=" translate(-118.72, -38.75)" d="M 40.206 25.977 L 36.691 27.1 Q 35.909 27.393 35.104 26.831 Q 34.333 26.294 34.3 25.109 A 3.858 3.858 0 0 1 34.298 25 A 63.562 63.562 0 0 0 34.147 20.433 Q 33.492 11.392 30.001 9.766 Q 28.433 9.001 26.626 9.494 A 6.97 6.97 0 0 0 25.607 9.863 A 9.804 9.804 0 0 0 23.392 11.472 Q 21.446 13.308 19.601 16.577 A 23.893 23.893 0 0 0 16.715 25.593 A 29.198 29.198 0 0 0 16.525 28.174 A 12.234 12.234 0 0 0 16.516 28.635 Q 16.516 30.895 17.404 32.227 A 4.146 4.146 0 0 0 18.384 33.233 Q 19.363 33.967 20.985 34.498 A 15.334 15.334 0 0 0 21.212 34.57 L 25.314 35.986 Q 30.034 37.613 32.128 39.658 A 6.703 6.703 0 0 1 32.955 40.625 A 8.451 8.451 0 0 1 34.065 42.976 Q 34.749 45.201 34.689 48.389 A 32.497 32.497 0 0 1 28.11 67.68 A 40.075 40.075 0 0 1 27.657 68.286 A 29.342 29.342 0 0 1 23.128 73.098 Q 17.931 77.423 11.788 77.49 A 9.783 9.783 0 0 1 2.437 71.751 Q 0.271 67.49 0.047 60.063 A 58.288 58.288 0 0 1 0.021 58.301 Q -0.175 54.297 1.486 53.76 L 5.196 52.588 Q 5.628 52.424 5.991 52.424 A 1.298 1.298 0 0 1 6.857 52.735 Q 7.491 53.272 7.491 54.492 A 105.941 105.941 0 0 0 7.489 55.182 Q 7.489 66.792 10.113 70.224 A 3.746 3.746 0 0 0 11.495 71.387 A 3.784 3.784 0 0 0 12.07 71.451 Q 13.075 71.49 14.398 71.069 A 13.403 13.403 0 0 0 15.402 70.703 Q 19.503 68.897 22.653 63.281 A 33.158 33.158 0 0 0 25.096 57.905 A 25.103 25.103 0 0 0 26.363 52.319 A 36.519 36.519 0 0 0 26.471 51.107 Q 26.781 46.771 25.704 45.264 Q 24.524 43.611 19.734 42.095 A 42.826 42.826 0 0 0 19.405 41.992 L 15.206 40.674 A 10.61 10.61 0 0 1 10.534 37.655 A 12.615 12.615 0 0 1 10.372 37.476 A 8.116 8.116 0 0 1 8.382 32.847 A 10.799 10.799 0 0 1 8.321 31.69 A 32.369 32.369 0 0 1 9.457 23.351 A 40.873 40.873 0 0 1 10.958 18.823 A 31.584 31.584 0 0 1 18.795 7.276 A 19.431 19.431 0 0 1 23.282 4.069 A 15.179 15.179 0 0 1 30.245 2.393 A 11.457 11.457 0 0 1 33.966 2.963 Q 37.144 4.049 38.941 7.202 A 12.274 12.274 0 0 1 39.205 7.691 A 20.332 20.332 0 0 1 40.748 11.89 Q 41.833 16.109 41.909 22.081 A 71.558 71.558 0 0 1 41.915 22.998 Q 41.915 24.257 41.479 25.004 A 2.075 2.075 0 0 1 40.206 25.977 Z M 208.077 25.098 L 210.861 25.098 A 3.172 3.172 0 0 1 212.138 25.342 Q 213.297 25.846 213.79 27.393 A 451.934 451.934 0 0 1 216.186 35.968 Q 217.351 40.312 218.282 44.19 A 171.744 171.744 0 0 0 221.253 39.701 Q 224.273 34.993 228.094 28.53 A 588.419 588.419 0 0 0 229.366 26.367 A 2.238 2.238 0 0 1 230.689 25.292 Q 231.27 25.098 232.052 25.098 L 235.47 25.098 Q 238.069 25.098 236.095 28.436 A 14.368 14.368 0 0 1 235.958 28.662 A 159.4 159.4 0 0 1 232.11 34.968 Q 227.654 41.933 221.126 50.91 A 514.027 514.027 0 0 1 220.187 52.197 A 332.706 332.706 0 0 1 223.324 67.991 A 384.219 384.219 0 0 1 224.288 73.779 Q 224.526 75.403 223.318 75.774 A 2.649 2.649 0 0 1 222.677 75.879 L 219.65 76.172 A 5.168 5.168 0 0 1 219.341 76.207 Q 218.222 76.299 217.77 75.781 Q 217.257 75.195 216.769 73.096 Q 215.792 66.26 214.181 58.887 Q 208.557 66.067 206.044 69.157 A 119.561 119.561 0 0 1 205.074 70.337 Q 203.177 72.61 202.615 73.298 A 25.072 25.072 0 0 0 202.462 73.486 A 41.52 41.52 0 0 0 202.326 73.658 Q 202.063 73.989 201.98 74.112 A 1.287 1.287 0 0 0 201.974 74.121 Q 201.876 74.268 201.534 74.683 Q 201.246 75.033 201.01 75.157 A 0.694 0.694 0 0 1 200.924 75.195 Q 200.744 75.261 200.508 75.371 A 9.747 9.747 0 0 0 200.265 75.488 A 2.085 2.085 0 0 1 199.68 75.752 Q 199.411 75.829 199.089 75.86 A 4.662 4.662 0 0 1 198.654 75.879 L 195.773 75.879 Q 195.004 75.879 194.523 75.627 A 1.383 1.383 0 0 1 193.917 75.025 A 1.624 1.624 0 0 1 193.788 74.693 Q 193.615 74.03 194.141 73.412 A 2.375 2.375 0 0 1 194.161 73.389 Q 204.142 61.275 209.977 53.507 A 218.041 218.041 0 0 0 212.277 50.391 A 382.954 382.954 0 0 0 208.074 34.287 A 427.733 427.733 0 0 0 206.466 28.76 Q 205.21 25.137 208.017 25.098 A 4.431 4.431 0 0 1 208.077 25.098 Z M 133.175 75.879 L 131.466 75.879 A 5.593 5.593 0 0 1 130.347 75.778 Q 128.241 75.345 128.476 73.074 A 5.501 5.501 0 0 1 128.536 72.656 L 146.847 2.197 A 3.281 3.281 0 0 1 147.358 1.086 Q 147.933 0.306 148.98 0.086 A 4.357 4.357 0 0 1 149.874 0 L 152.169 0 A 4.996 4.996 0 0 1 152.98 0.06 Q 154.858 0.37 154.366 2.295 L 145.675 36.377 L 147.14 33.887 A 28.156 28.156 0 0 1 150.158 29.714 A 24.118 24.118 0 0 1 151.949 27.881 Q 153.946 26.046 155.399 25.563 A 3.083 3.083 0 0 1 156.368 25.391 L 156.564 25.391 Q 157.289 25.391 158.813 26.379 A 18.058 18.058 0 0 1 159.054 26.538 Q 160.649 27.609 162.181 29.468 A 21.628 21.628 0 0 1 162.399 29.736 Q 164.034 31.787 164.645 34.033 Q 165.22 36.15 164.451 41.561 A 72.975 72.975 0 0 1 164.352 42.236 A 46.155 46.155 0 0 1 163.559 46.165 Q 162.609 50.082 160.816 55.287 A 181.681 181.681 0 0 1 159.64 58.594 A 82.064 82.064 0 0 1 157.731 63.371 Q 155.692 68.011 153.633 70.732 A 15.028 15.028 0 0 1 151.949 72.632 A 13.345 13.345 0 0 1 143.505 76.226 A 17.606 17.606 0 0 1 142.257 76.27 Q 138.937 76.27 135.861 74.365 Q 135.03 75.879 133.175 75.879 Z M 95.04 24.756 L 97.335 24.658 Q 100.86 24.752 100.087 28.013 A 6.982 6.982 0 0 1 100.021 28.272 L 88.009 68.262 A 22.31 22.31 0 0 0 90.71 65.895 Q 91.918 64.664 93.12 63.128 A 42.746 42.746 0 0 0 94.21 61.67 A 3.656 3.656 0 0 1 94.584 61.211 Q 95.557 60.211 96.7 60.986 L 99.142 62.598 A 3.163 3.163 0 0 1 99.568 62.944 Q 100.535 63.895 99.63 65.088 A 74.696 74.696 0 0 1 96.65 68.374 Q 95.181 69.895 93.808 71.107 A 34.474 34.474 0 0 1 92.086 72.534 A 19.763 19.763 0 0 1 86.195 75.633 A 24.053 24.053 0 0 1 83.907 76.27 Q 82.768 76.432 82.273 75.578 A 2.191 2.191 0 0 1 82.101 75.195 L 80.245 69.678 Q 77.89 72.764 76.109 74.246 A 10.186 10.186 0 0 1 75.411 74.78 A 15.237 15.237 0 0 1 74.496 75.373 Q 73.149 76.172 72.335 76.172 L 72.14 76.172 Q 71.31 76.172 69.674 75.025 A 15.623 15.623 0 0 1 68.044 73.7 Q 67.233 72.949 66.427 72.022 A 11.741 11.741 0 0 1 64.405 68.781 A 11.014 11.014 0 0 1 64.108 67.969 Q 63.417 65.825 64.167 60.265 A 66.405 66.405 0 0 1 64.205 59.986 A 42.668 42.668 0 0 1 64.944 56.143 Q 65.85 52.291 67.612 47.102 A 178.993 178.993 0 0 1 68.771 43.799 A 83.985 83.985 0 0 1 70.841 38.582 Q 72.963 33.755 75.144 30.877 A 17.517 17.517 0 0 1 76.486 29.297 A 12.783 12.783 0 0 1 85.763 25.295 Q 85.941 25.291 86.122 25.291 A 16.837 16.837 0 0 1 86.398 25.293 A 12.134 12.134 0 0 1 92.461 26.934 A 14.416 14.416 0 0 1 92.745 27.1 Q 93.136 24.756 95.04 24.756 Z M 120.284 27.197 L 117.404 38.477 A 119.289 119.289 0 0 1 119.719 34.842 Q 121.594 32.019 123.287 29.883 A 68.022 68.022 0 0 1 124.403 28.51 Q 126.27 26.278 127.242 25.611 A 3.614 3.614 0 0 1 128.147 25.178 Q 129.415 24.756 131.613 24.756 L 132.589 24.756 Q 135.358 24.756 134.681 26.762 A 3.864 3.864 0 0 1 134.591 27.002 A 4.114 4.114 0 0 1 134.2 27.708 Q 133.718 28.424 132.814 29.31 A 21.65 21.65 0 0 1 132.15 29.932 Q 130.196 31.69 126.852 35.938 A 58.565 58.565 0 0 0 125.715 37.426 Q 123.507 40.424 123.507 41.455 A 5.754 5.754 0 0 0 124.456 44.58 Q 124.97 45.392 125.765 46.166 A 11.436 11.436 0 0 0 125.997 46.387 A 1.564 1.564 0 0 1 126.202 46.589 Q 126.499 46.948 126.374 47.344 A 0.948 0.948 0 0 1 126.339 47.437 Q 126.112 47.958 125.423 48.164 A 2.522 2.522 0 0 1 125.314 48.194 L 121.505 48.877 A 6.057 6.057 0 0 1 121.022 48.946 Q 119.859 49.062 119.155 48.615 A 1.909 1.909 0 0 1 119.039 48.535 Q 118.351 48.024 116.854 45.388 A 68.531 68.531 0 0 1 116.085 43.994 L 108.419 73.682 Q 107.784 75.879 105.392 75.879 L 102.511 75.879 Q 99.679 75.879 100.314 73.584 L 112.521 27.1 A 2.833 2.833 0 0 1 112.982 26.071 Q 113.704 25.098 115.304 25.098 L 118.38 25.098 A 6.207 6.207 0 0 1 118.95 25.122 Q 119.801 25.201 120.138 25.537 Q 120.577 25.977 120.284 27.197 Z M 65.988 9.668 L 62.081 25.098 L 67.257 25.098 A 3.192 3.192 0 0 1 67.884 25.154 Q 69.247 25.428 68.839 27.054 A 4.522 4.522 0 0 1 68.771 27.295 L 68.087 29.883 Q 67.634 31.243 66.732 31.761 A 2.526 2.526 0 0 1 65.45 32.08 L 60.275 32.08 L 49.679 73.682 A 3.281 3.281 0 0 1 49.167 74.793 Q 48.593 75.573 47.545 75.793 A 4.357 4.357 0 0 1 46.652 75.879 L 44.796 75.879 A 4.498 4.498 0 0 1 43.976 75.81 Q 43.534 75.728 43.195 75.549 A 1.93 1.93 0 0 1 42.526 74.976 A 2.37 2.37 0 0 1 42.088 73.823 Q 42.045 73.439 42.101 73.002 A 4.616 4.616 0 0 1 42.159 72.656 L 52.56 32.08 L 48.556 32.08 A 2.395 2.395 0 0 1 47.976 32.017 Q 46.798 31.722 47.186 30.057 A 5.622 5.622 0 0 1 47.286 29.688 L 48.068 27.002 A 3.89 3.89 0 0 1 48.424 26.17 Q 48.715 25.676 49.129 25.409 A 2.052 2.052 0 0 1 50.265 25.098 L 54.269 25.098 L 58.273 9.57 A 3.354 3.354 0 0 1 58.762 8.484 Q 59.347 7.66 60.435 7.447 A 4.259 4.259 0 0 1 61.251 7.373 L 63.79 7.373 A 4.996 4.996 0 0 1 64.601 7.433 Q 66.479 7.743 65.988 9.668 Z M 173.116 36.035 A 58.19 58.19 0 0 0 166.427 61.377 Q 166.266 66.088 167.426 69.39 A 11.196 11.196 0 0 0 170.236 73.877 A 11.43 11.43 0 0 0 172.01 75.317 A 7.932 7.932 0 0 0 176.144 76.66 Q 185.128 77.002 190.45 67.774 A 54.316 54.316 0 0 0 198.556 40.381 Q 198.836 34.781 197.836 31.515 A 8.928 8.928 0 0 0 196.847 29.297 A 12.835 12.835 0 0 0 195.873 27.863 A 9.014 9.014 0 0 0 189.034 24.268 A 15.335 15.335 0 0 0 188.725 24.265 Q 179.266 24.265 173.116 36.035 Z M 183.468 65.381 A 46.354 46.354 0 0 0 190.646 41.455 A 87.2 87.2 0 0 0 190.655 40.759 Q 190.7 35.485 190.038 33.601 A 4.32 4.32 0 0 0 190.035 33.594 A 3.272 3.272 0 0 0 189.396 32.48 Q 188.791 31.809 187.809 31.618 A 4.304 4.304 0 0 0 187.081 31.543 A 4.584 4.584 0 0 0 186.982 31.542 Q 184.794 31.542 182.98 33.643 Q 181.632 35.204 180.335 37.641 A 38.76 38.76 0 0 0 179.366 39.6 A 44.471 44.471 0 0 0 175.519 51.22 A 59.395 59.395 0 0 0 174.532 60.401 A 45.661 45.661 0 0 0 174.522 61.134 Q 174.475 69.397 177.657 69.678 Q 180.538 69.776 183.468 65.381 Z M 91.232 32.666 A 14.923 14.923 0 0 0 89.504 31.832 Q 87.792 31.146 86.313 31.146 A 5.608 5.608 0 0 0 82.565 32.544 Q 79.878 34.838 77.286 40.959 A 67.485 67.485 0 0 0 76.022 44.19 A 179.063 179.063 0 0 0 74.563 48.348 Q 72.585 54.23 71.871 57.984 A 86.273 86.273 0 0 0 71.51 60.002 Q 70.987 63.164 71.054 64.606 A 5.504 5.504 0 0 0 71.066 64.795 A 3.372 3.372 0 0 0 71.415 66.08 Q 71.799 66.826 72.589 67.301 A 4.054 4.054 0 0 0 72.823 67.432 A 1.296 1.296 0 0 0 73.426 67.572 Q 74.863 67.572 77.43 64.946 A 30.468 30.468 0 0 0 78.17 64.16 A 27.528 27.528 0 0 0 81.209 60.077 Q 83.112 56.996 84.713 52.93 A 113.664 113.664 0 0 0 86.173 48.99 Q 88.448 42.517 91.232 32.666 Z M 137.765 67.969 L 137.472 68.897 A 13.103 13.103 0 0 0 139.192 69.776 Q 140.793 70.442 142.233 70.442 A 5.93 5.93 0 0 0 145.748 69.287 A 9.875 9.875 0 0 0 147.697 67.371 Q 150.166 64.263 152.535 57.788 A 178.808 178.808 0 0 0 154.037 53.528 Q 155.593 48.916 156.376 45.591 A 41.849 41.849 0 0 0 156.783 43.677 A 90.538 90.538 0 0 0 157.144 41.622 Q 157.704 38.183 157.589 36.768 A 3.318 3.318 0 0 0 157.225 35.462 Q 156.841 34.742 156.07 34.277 A 4.107 4.107 0 0 0 155.807 34.131 Q 154.351 33.392 151.172 36.717 A 31.807 31.807 0 0 0 150.363 37.598 A 29.956 29.956 0 0 0 147.075 42.15 Q 145.282 45.158 143.795 48.975 A 119.048 119.048 0 0 0 142.021 53.872 Q 140.014 59.778 137.765 67.969 Z" stroke-linecap="round" />
</g>
</svg>