<svg width="261.432" height="94.878" viewBox="0 0 261.432 94.878" xmlns="http://www.w3.org/2000/svg"><g id="svgGroup" stroke-linecap="round" fill-rule="evenodd" font-size="9pt" stroke="#ffffff" stroke-width="0.25mm" fill="#ffffff" style="stroke:#ffffff;stroke-width:0.25mm;fill:#ffffff"><path d="M 40.206 25.977 L 36.691 27.1 Q 35.909 27.393 35.104 26.831 Q 34.333 26.294 34.3 25.109 A 3.858 3.858 0 0 1 34.298 25 A 63.562 63.562 0 0 0 34.147 20.433 Q 33.492 11.392 30.001 9.766 Q 28.433 9.001 26.626 9.494 A 6.97 6.97 0 0 0 25.607 9.863 A 9.804 9.804 0 0 0 23.392 11.472 Q 21.446 13.308 19.601 16.577 A 23.893 23.893 0 0 0 16.715 25.593 A 29.198 29.198 0 0 0 16.525 28.174 A 12.234 12.234 0 0 0 16.516 28.635 Q 16.516 30.895 17.404 32.227 A 4.146 4.146 0 0 0 18.384 33.233 Q 19.363 33.967 20.985 34.498 A 15.334 15.334 0 0 0 21.212 34.57 L 25.314 35.986 Q 30.034 37.613 32.128 39.658 A 6.703 6.703 0 0 1 32.955 40.625 A 8.451 8.451 0 0 1 34.065 42.976 Q 34.749 45.201 34.689 48.389 A 32.497 32.497 0 0 1 28.11 67.68 A 40.075 40.075 0 0 1 27.657 68.286 A 29.342 29.342 0 0 1 23.128 73.098 Q 17.931 77.423 11.788 77.49 A 9.783 9.783 0 0 1 2.437 71.751 Q 0.271 67.49 0.047 60.063 A 58.288 58.288 0 0 1 0.021 58.301 Q -0.175 54.297 1.486 53.76 L 5.196 52.588 Q 5.628 52.424 5.991 52.424 A 1.298 1.298 0 0 1 6.857 52.735 Q 7.491 53.272 7.491 54.492 A 105.941 105.941 0 0 0 7.489 55.182 Q 7.489 66.792 10.113 70.224 A 3.746 3.746 0 0 0 11.495 71.387 A 3.784 3.784 0 0 0 12.07 71.451 Q 13.075 71.49 14.398 71.069 A 13.403 13.403 0 0 0 15.402 70.703 Q 19.503 68.897 22.653 63.281 A 33.158 33.158 0 0 0 25.096 57.905 A 25.103 25.103 0 0 0 26.363 52.319 A 36.519 36.519 0 0 0 26.471 51.107 Q 26.781 46.771 25.704 45.264 Q 24.524 43.611 19.734 42.095 A 42.826 42.826 0 0 0 19.405 41.992 L 15.206 40.674 A 10.61 10.61 0 0 1 10.534 37.655 A 12.615 12.615 0 0 1 10.372 37.476 A 8.116 8.116 0 0 1 8.382 32.847 A 10.799 10.799 0 0 1 8.321 31.69 A 32.369 32.369 0 0 1 9.457 23.351 A 40.873 40.873 0 0 1 10.958 18.823 A 31.584 31.584 0 0 1 18.795 7.276 A 19.431 19.431 0 0 1 23.282 4.069 A 15.179 15.179 0 0 1 30.245 2.393 A 11.457 11.457 0 0 1 33.966 2.963 Q 37.144 4.049 38.941 7.202 A 12.274 12.274 0 0 1 39.205 7.691 A 20.332 20.332 0 0 1 40.748 11.89 Q 41.833 16.109 41.909 22.081 A 71.558 71.558 0 0 1 41.915 22.998 Q 41.915 24.257 41.479 25.004 A 2.075 2.075 0 0 1 40.206 25.977 Z M 159.396 25.195 L 162.814 25.098 Q 165.304 25 164.816 27.686 A 324.251 324.251 0 0 1 163.6 32.352 Q 160.195 45.114 150.118 80.86 A 33.86 33.86 0 0 1 148.473 85.537 Q 147.452 87.835 146.178 89.534 A 12.323 12.323 0 0 1 142.208 93.067 A 23.214 23.214 0 0 1 140.893 93.82 Q 139.034 94.8 137.863 94.873 Q 136.3 94.971 133.126 93.164 L 122.921 87.402 A 3.886 3.886 0 0 1 122.254 86.98 Q 120.96 85.942 121.812 84.268 A 5.156 5.156 0 0 1 122.091 83.789 L 123.605 81.69 A 4.851 4.851 0 0 1 124.196 81.123 Q 125.528 80.061 126.925 80.86 L 138.009 87.695 A 2.731 2.731 0 0 0 138.459 87.845 Q 140.407 88.298 141.329 84.961 L 146.114 67.481 A 30.369 30.369 0 0 1 143.635 71.079 A 23.901 23.901 0 0 1 141.207 73.682 Q 139.21 75.517 137.757 76 A 3.083 3.083 0 0 1 136.788 76.172 L 136.593 76.172 Q 135.868 76.172 134.343 75.183 A 18.058 18.058 0 0 1 134.103 75.025 A 13.298 13.298 0 0 1 132.321 73.578 A 18.055 18.055 0 0 1 130.807 71.924 A 12.677 12.677 0 0 1 129.124 69.255 A 11.158 11.158 0 0 1 128.561 67.774 A 5.679 5.679 0 0 1 128.386 66.946 Q 128.05 64.587 128.805 59.57 Q 129.621 54.145 132.668 45.353 A 184.063 184.063 0 0 1 133.346 43.433 A 77.978 77.978 0 0 1 135.388 38.284 Q 138.081 32.19 140.939 29.297 A 13.309 13.309 0 0 1 150.341 25.302 A 17.596 17.596 0 0 1 150.9 25.293 Q 154.22 25.293 157.296 27.197 Q 157.598 26.165 158.147 25.665 A 1.788 1.788 0 0 1 159.396 25.195 Z M 261.3 2.295 L 242.306 68.262 A 24.092 24.092 0 0 0 244.594 66.163 Q 245.713 65.006 246.867 63.566 A 51.2 51.2 0 0 0 248.312 61.67 A 3.449 3.449 0 0 1 248.681 61.202 Q 249.623 60.214 250.802 60.986 L 253.195 62.598 A 3.24 3.24 0 0 1 253.627 62.937 Q 254.633 63.89 253.683 65.088 A 74.696 74.696 0 0 1 250.703 68.374 Q 249.234 69.895 247.86 71.107 A 34.474 34.474 0 0 1 246.139 72.534 A 19.923 19.923 0 0 1 240 75.724 A 23.961 23.961 0 0 1 238.009 76.27 A 2.61 2.61 0 0 1 237.767 76.308 Q 236.559 76.442 236.202 75.195 L 234.298 69.678 A 27.634 27.634 0 0 1 232.102 72.373 A 21.616 21.616 0 0 1 230.05 74.317 A 14.767 14.767 0 0 1 228.979 75.128 Q 227.45 76.172 226.388 76.172 L 226.193 76.172 Q 224.302 76.172 221.185 72.924 A 30.009 30.009 0 0 1 221.139 72.876 A 13.231 13.231 0 0 1 219.175 70.278 A 9.513 9.513 0 0 1 217.892 65.772 Q 217.794 57.959 222.311 45.459 Q 226.827 32.959 230.758 29.077 Q 234.592 25.291 240.215 25.291 A 16.904 16.904 0 0 1 240.499 25.293 Q 243.82 25.293 246.798 27.1 L 253.488 2.197 Q 254.122 0 256.515 0 L 259.103 0 A 5.347 5.347 0 0 1 259.923 0.057 Q 261.876 0.362 261.3 2.295 Z M 95.04 24.756 L 97.335 24.658 Q 100.86 24.752 100.087 28.013 A 6.982 6.982 0 0 1 100.021 28.272 L 88.009 68.262 A 22.31 22.31 0 0 0 90.71 65.895 Q 91.918 64.664 93.12 63.128 A 42.746 42.746 0 0 0 94.21 61.67 A 3.656 3.656 0 0 1 94.584 61.211 Q 95.557 60.211 96.7 60.986 L 99.142 62.598 A 3.163 3.163 0 0 1 99.568 62.944 Q 100.535 63.895 99.63 65.088 A 74.696 74.696 0 0 1 96.65 68.374 Q 95.181 69.895 93.808 71.107 A 34.474 34.474 0 0 1 92.086 72.534 A 19.763 19.763 0 0 1 86.195 75.633 A 24.053 24.053 0 0 1 83.907 76.27 Q 82.768 76.432 82.273 75.578 A 2.191 2.191 0 0 1 82.101 75.195 L 80.245 69.678 Q 77.89 72.764 76.109 74.246 A 10.186 10.186 0 0 1 75.411 74.78 A 15.237 15.237 0 0 1 74.496 75.373 Q 73.149 76.172 72.335 76.172 L 72.14 76.172 Q 71.31 76.172 69.674 75.025 A 15.623 15.623 0 0 1 68.044 73.7 Q 67.233 72.949 66.427 72.022 A 11.741 11.741 0 0 1 64.405 68.781 A 11.014 11.014 0 0 1 64.108 67.969 Q 63.417 65.825 64.167 60.265 A 66.405 66.405 0 0 1 64.205 59.986 A 42.668 42.668 0 0 1 64.944 56.143 Q 65.85 52.291 67.612 47.102 A 178.993 178.993 0 0 1 68.771 43.799 A 83.985 83.985 0 0 1 70.841 38.582 Q 72.963 33.755 75.144 30.877 A 17.517 17.517 0 0 1 76.486 29.297 A 12.783 12.783 0 0 1 85.763 25.295 Q 85.941 25.291 86.122 25.291 A 16.837 16.837 0 0 1 86.398 25.293 A 12.134 12.134 0 0 1 92.461 26.934 A 14.416 14.416 0 0 1 92.745 27.1 Q 93.136 24.756 95.04 24.756 Z M 120.284 27.197 L 117.404 38.477 A 119.289 119.289 0 0 1 119.719 34.842 Q 121.594 32.019 123.287 29.883 A 68.022 68.022 0 0 1 124.403 28.51 Q 126.27 26.278 127.242 25.611 A 3.614 3.614 0 0 1 128.147 25.178 Q 129.415 24.756 131.613 24.756 L 132.589 24.756 Q 135.358 24.756 134.681 26.762 A 3.864 3.864 0 0 1 134.591 27.002 A 4.114 4.114 0 0 1 134.2 27.708 Q 133.718 28.424 132.814 29.31 A 21.65 21.65 0 0 1 132.15 29.932 Q 130.196 31.69 126.852 35.938 A 58.565 58.565 0 0 0 125.715 37.426 Q 123.507 40.424 123.507 41.455 A 5.754 5.754 0 0 0 124.456 44.58 Q 124.97 45.392 125.765 46.166 A 11.436 11.436 0 0 0 125.997 46.387 A 1.564 1.564 0 0 1 126.202 46.589 Q 126.499 46.948 126.374 47.344 A 0.948 0.948 0 0 1 126.339 47.437 Q 126.112 47.958 125.423 48.164 A 2.522 2.522 0 0 1 125.314 48.194 L 121.505 48.877 A 6.057 6.057 0 0 1 121.022 48.946 Q 119.859 49.062 119.155 48.615 A 1.909 1.909 0 0 1 119.039 48.535 Q 118.351 48.024 116.854 45.388 A 68.531 68.531 0 0 1 116.085 43.994 L 108.419 73.682 Q 107.784 75.879 105.392 75.879 L 102.511 75.879 Q 99.679 75.879 100.314 73.584 L 112.521 27.1 A 2.833 2.833 0 0 1 112.982 26.071 Q 113.704 25.098 115.304 25.098 L 118.38 25.098 A 6.207 6.207 0 0 1 118.95 25.122 Q 119.801 25.201 120.138 25.537 Q 120.577 25.977 120.284 27.197 Z M 65.988 9.668 L 62.081 25.098 L 67.257 25.098 A 3.192 3.192 0 0 1 67.884 25.154 Q 69.247 25.428 68.839 27.054 A 4.522 4.522 0 0 1 68.771 27.295 L 68.087 29.883 Q 67.634 31.243 66.732 31.761 A 2.526 2.526 0 0 1 65.45 32.08 L 60.275 32.08 L 49.679 73.682 A 3.281 3.281 0 0 1 49.167 74.793 Q 48.593 75.573 47.545 75.793 A 4.357 4.357 0 0 1 46.652 75.879 L 44.796 75.879 A 4.498 4.498 0 0 1 43.976 75.81 Q 43.534 75.728 43.195 75.549 A 1.93 1.93 0 0 1 42.526 74.976 A 2.37 2.37 0 0 1 42.088 73.823 Q 42.045 73.439 42.101 73.002 A 4.616 4.616 0 0 1 42.159 72.656 L 52.56 32.08 L 48.556 32.08 A 2.395 2.395 0 0 1 47.976 32.017 Q 46.798 31.722 47.186 30.057 A 5.622 5.622 0 0 1 47.286 29.688 L 48.068 27.002 A 3.89 3.89 0 0 1 48.424 26.17 Q 48.715 25.676 49.129 25.409 A 2.052 2.052 0 0 1 50.265 25.098 L 54.269 25.098 L 58.273 9.57 A 3.354 3.354 0 0 1 58.762 8.484 Q 59.347 7.66 60.435 7.447 A 4.259 4.259 0 0 1 61.251 7.373 L 63.79 7.373 A 4.996 4.996 0 0 1 64.601 7.433 Q 66.479 7.743 65.988 9.668 Z M 223.312 2.295 L 205.099 73.682 A 3.281 3.281 0 0 1 204.587 74.793 Q 204.013 75.573 202.965 75.793 A 4.357 4.357 0 0 1 202.071 75.879 L 200.411 75.879 A 6.273 6.273 0 0 1 199.302 75.79 Q 196.83 75.344 197.482 72.656 L 215.792 2.197 A 3.354 3.354 0 0 1 216.282 1.111 Q 216.867 0.286 217.954 0.074 A 4.259 4.259 0 0 1 218.771 0 L 221.066 0 A 5.171 5.171 0 0 1 221.893 0.06 Q 223.778 0.367 223.324 2.245 A 4.002 4.002 0 0 1 223.312 2.295 Z M 172.14 36.035 A 58.19 58.19 0 0 0 165.45 61.377 Q 165.29 66.088 166.45 69.39 A 11.196 11.196 0 0 0 169.259 73.877 A 11.43 11.43 0 0 0 171.033 75.317 A 7.932 7.932 0 0 0 175.167 76.66 Q 184.152 77.002 189.474 67.774 A 54.316 54.316 0 0 0 197.579 40.381 Q 197.859 34.781 196.86 31.515 A 8.928 8.928 0 0 0 195.87 29.297 A 12.835 12.835 0 0 0 194.897 27.863 A 9.014 9.014 0 0 0 188.058 24.268 A 15.335 15.335 0 0 0 187.748 24.265 Q 178.289 24.265 172.14 36.035 Z M 182.491 65.381 A 46.354 46.354 0 0 0 189.669 41.455 A 87.2 87.2 0 0 0 189.678 40.759 Q 189.724 35.485 189.061 33.601 A 4.32 4.32 0 0 0 189.059 33.594 A 3.272 3.272 0 0 0 188.419 32.48 Q 187.815 31.809 186.833 31.618 A 4.304 4.304 0 0 0 186.105 31.543 A 4.584 4.584 0 0 0 186.005 31.542 Q 183.817 31.542 182.003 33.643 Q 180.655 35.204 179.358 37.641 A 38.76 38.76 0 0 0 178.39 39.6 A 44.471 44.471 0 0 0 174.542 51.22 A 59.395 59.395 0 0 0 173.556 60.401 A 45.661 45.661 0 0 0 173.546 61.134 Q 173.499 69.397 176.681 69.678 Q 179.562 69.776 182.491 65.381 Z M 91.232 32.666 A 14.923 14.923 0 0 0 89.504 31.832 Q 87.792 31.146 86.313 31.146 A 5.608 5.608 0 0 0 82.565 32.544 Q 79.878 34.838 77.286 40.959 A 67.485 67.485 0 0 0 76.022 44.19 A 179.063 179.063 0 0 0 74.563 48.348 Q 72.585 54.23 71.871 57.984 A 86.273 86.273 0 0 0 71.51 60.002 Q 70.987 63.164 71.054 64.606 A 5.504 5.504 0 0 0 71.066 64.795 A 3.372 3.372 0 0 0 71.415 66.08 Q 71.799 66.826 72.589 67.301 A 4.054 4.054 0 0 0 72.823 67.432 A 1.296 1.296 0 0 0 73.426 67.572 Q 74.863 67.572 77.43 64.946 A 30.468 30.468 0 0 0 78.17 64.16 A 27.528 27.528 0 0 0 81.209 60.077 Q 83.112 56.996 84.713 52.93 A 113.664 113.664 0 0 0 86.173 48.99 Q 88.448 42.517 91.232 32.666 Z M 155.392 33.594 L 155.685 32.666 A 14.44 14.44 0 0 0 153.899 31.814 Q 152.249 31.17 150.801 31.17 A 5.779 5.779 0 0 0 147.36 32.276 Q 144.812 34.098 142.265 39.786 A 63.463 63.463 0 0 0 140.67 43.726 A 177.693 177.693 0 0 0 139.147 48.007 Q 137.57 52.641 136.782 55.97 A 40.956 40.956 0 0 0 136.373 57.886 A 90.538 90.538 0 0 0 136.013 59.94 Q 135.453 63.379 135.568 64.795 A 3.318 3.318 0 0 0 135.932 66.101 Q 136.315 66.821 137.087 67.286 A 4.107 4.107 0 0 0 137.35 67.432 Q 138.797 68.166 141.984 64.81 A 32.669 32.669 0 0 0 142.843 63.867 A 31.138 31.138 0 0 0 146.311 58.997 Q 147.747 56.535 148.966 53.578 A 54.294 54.294 0 0 0 149.41 52.466 Q 151.997 45.779 155.094 34.667 A 393.171 393.171 0 0 0 155.392 33.594 Z M 245.284 32.666 A 14.44 14.44 0 0 0 243.499 31.814 Q 241.848 31.17 240.401 31.17 A 5.779 5.779 0 0 0 236.959 32.276 Q 234.261 34.206 231.754 39.948 A 55.883 55.883 0 0 0 230.563 42.92 A 152.742 152.742 0 0 0 228.507 48.828 Q 226.989 53.516 226.119 57.422 Q 224.854 63.104 225.566 65.598 A 4.193 4.193 0 0 0 225.729 66.065 Q 226.635 68.231 228.603 67.315 A 4.726 4.726 0 0 0 229.025 67.09 Q 233.666 64.092 237.374 56.091 A 53.062 53.062 0 0 0 237.447 55.933 A 85.348 85.348 0 0 0 239.818 50.167 Q 242.465 43.073 245.284 32.666 Z" vector-effect="non-scaling-stroke"/></g></svg>